<svg width="226" height="48" viewBox="0 0 226 48" fill="none" xmlns="http://www.w3.org/2000/svg">
<g id="Group 9132">
<path id="Rectangle 20" d="M0 5C0 2.23858 2.23858 0 5 0H221C223.761 0 226 2.23858 226 5V43C226 45.7614 223.761 48 221 48H5C2.23857 48 0 45.7614 0 43V5Z" fill="#661FFF"/>
<g id="Vector">
<path d="M125.426 34.9199C125.313 34.9199 125.222 34.8297 125.222 34.7185V30.4229C125.222 30.3117 125.313 30.2215 125.426 30.2215H140.915C141.028 30.2215 141.119 30.3117 141.119 30.4229V34.7185C141.119 34.8297 141.028 34.9199 140.915 34.9199H125.426Z" fill="white"/>
<path d="M125.222 10.9325C125.222 10.8213 125.313 10.7312 125.426 10.7312H129.77C129.883 10.7312 129.974 10.8213 129.974 10.9325V34.6928C129.974 34.804 129.883 34.8942 129.77 34.8942H125.426C125.313 34.8942 125.222 34.804 125.222 34.6928V10.9325Z" fill="white"/>
<path d="M149.932 30.0043C149.932 29.8931 150.023 29.8029 150.135 29.8029H159.571C159.683 29.8029 159.774 29.8931 159.774 30.0043V31.2796C159.774 31.3908 159.683 31.4809 159.571 31.4809H150.135C150.023 31.4809 149.932 31.3908 149.932 31.2796V30.0043Z" fill="white"/>
<path fill-rule="evenodd" clip-rule="evenodd" d="M143.961 34.2286C143.761 34.6725 144.09 35.1725 144.581 35.1725H165.125C165.616 35.1725 165.945 34.6725 165.745 34.2286L155.473 11.3823C155.234 10.8509 154.472 10.8509 154.233 11.3823L143.961 34.2286ZM154.853 16.6118L147.715 32.4877H161.991L154.853 16.6118Z" fill="white"/>
<path d="M154.853 15.9574L162.901 33.8232H146.805L154.853 15.9574Z" fill="white"/>
<path d="M173.08 30.3142C173.08 30.203 173.172 30.1128 173.284 30.1128H181.362C181.474 30.1128 181.566 30.203 181.566 30.3142V31.5895C181.566 31.7007 181.474 31.7908 181.362 31.7908H173.284C173.172 31.7908 173.08 31.7007 173.08 31.5895V30.3142Z" fill="white"/>
<path fill-rule="evenodd" clip-rule="evenodd" d="M167.65 11.3194H179.19C182.751 11.3194 185.639 14.1742 185.639 17.6957C185.639 19.6438 184.755 21.3878 183.363 22.5574C185.527 23.7237 186.996 25.9935 186.996 28.6026C186.996 32.4022 183.881 35.4824 180.038 35.4824H169.007V21.7229H174.572L167.65 11.3194ZM177.599 21.3873L172.686 14.0042H179.19C181.252 14.0042 182.923 15.6569 182.923 17.6957C182.923 19.7345 181.252 21.3873 179.19 21.3873H177.599ZM171.723 24.4077H180.038C182.381 24.4077 184.281 26.2858 184.281 28.6026C184.281 30.9195 182.381 32.7976 180.038 32.7976H171.723V24.4077Z" fill="white"/>
<path d="M172.486 13.1999L182.81 13.5991L183.877 21.2976L177.475 21.9249L172.486 17.8621V13.1999Z" fill="white"/>
<path d="M170.459 23.881H182.81L186.335 29.6655L180.331 34.5164L171.068 33.7824L170.459 28.5432V23.881Z" fill="white"/>
<path d="M194.191 18.2952C194.191 17.1431 195.566 15.4426 198.329 15.4426C201.092 15.4426 202.466 17.1431 202.466 18.2952H206.879C206.879 13.8868 202.573 11.0798 198.329 11.0798C194.084 11.0798 189.779 13.8868 189.779 18.2952C189.779 20.6497 191.227 22.3951 192.768 23.4886C194.236 24.5306 196.053 25.1938 197.757 25.4524L197.755 25.4688C198.825 25.6303 200.159 26.0948 201.169 26.762C202.237 27.4677 202.466 28.0546 202.466 28.3631C202.466 29.5151 201.092 31.2157 198.329 31.2157C195.566 31.2157 194.191 29.5151 194.191 28.3631H189.779C189.779 32.7714 194.084 35.5784 198.329 35.5784C202.573 35.5784 206.879 32.7714 206.879 28.3631C206.879 25.8914 205.168 24.157 203.62 23.1345C202.074 22.1128 200.201 21.453 198.603 21.1852L198.606 21.165C197.454 21.0206 196.225 20.5722 195.341 19.9446C194.445 19.3082 194.191 18.7208 194.191 18.2952Z" fill="white"/>
<path d="M95.3918 11.0334H103.877C110.625 11.0334 116.096 16.4425 116.096 23.1149C116.096 29.7874 110.625 35.1964 103.877 35.1964H95.3918V11.0334Z" fill="white"/>
<path d="M43.9965 11.2091C43.9965 11.0979 44.0876 11.0077 44.2001 11.0077H48.5446C48.6571 11.0077 48.7483 11.0979 48.7483 11.2091V34.9694C48.7483 35.0806 48.6571 35.1707 48.5446 35.1707H44.2001C44.0876 35.1707 43.9965 35.0806 43.9965 34.9694V11.2091Z" fill="white"/>
<path d="M76.0516 11.2091C76.0516 11.0979 76.1427 11.0077 76.2552 11.0077H80.5997C80.7122 11.0077 80.8033 11.0979 80.8033 11.2091V34.9694C80.8033 35.0806 80.7122 35.1707 80.5997 35.1707H76.2552C76.1427 35.1707 76.0516 35.0806 76.0516 34.9694V11.2091Z" fill="white"/>
<path d="M77.5805 15.7318C77.468 15.7318 77.3769 15.6416 77.3769 15.5304V11.2348C77.3769 11.1236 77.4681 11.0334 77.5805 11.0334H91.0928C91.2053 11.0334 91.2965 11.1236 91.2965 11.2348V15.5304C91.2965 15.6416 91.2053 15.7318 91.0928 15.7318H77.5805Z" fill="white"/>
<path d="M77.5805 35.1965C77.468 35.1965 77.3769 35.1063 77.3769 34.9951V30.6995C77.3769 30.5882 77.4681 30.4981 77.5805 30.4981H91.0928C91.2053 30.4981 91.2965 30.5882 91.2965 30.6995V34.9951C91.2965 35.1063 91.2053 35.1965 91.0928 35.1965H77.5805Z" fill="white"/>
<path d="M77.5805 25.2548C77.468 25.2548 77.3769 25.1646 77.3769 25.0534V20.7578C77.3769 20.6466 77.4681 20.5564 77.5805 20.5564H89.1786C89.2911 20.5564 89.3823 20.6466 89.3823 20.7578V25.0534C89.3823 25.1646 89.2911 25.2548 89.1786 25.2548H77.5805Z" fill="white"/>
<path d="M79.71 31.5049C79.5976 31.5049 79.5064 31.4147 79.5064 31.3035V14.5077C79.5064 14.3965 79.5976 14.3063 79.71 14.3063H82.5869C82.6994 14.3063 82.7906 14.3965 82.7906 14.5077V31.3035C82.7906 31.4147 82.6994 31.5049 82.5869 31.5049H79.71Z" fill="white"/>
<path fill-rule="evenodd" clip-rule="evenodd" d="M19.1765 33.7605C18.9769 34.2044 19.3055 34.7043 19.7968 34.7043H40.3409C40.8321 34.7043 41.1607 34.2044 40.9612 33.7605L30.6891 10.9142C30.4502 10.3828 29.6874 10.3828 29.4485 10.9142L19.1765 33.7605ZM30.0688 16.1436L22.9308 32.0196H37.2069L30.0688 16.1436Z" fill="white"/>
<path d="M30.0688 15.6162L38.8461 32.5608H21.6939L30.0688 15.6162Z" fill="white"/>
<path d="M60.4118 20.1028C60.0258 20.4436 59.9596 21.0164 60.2579 21.4344L69.9218 34.9758C70.4947 35.7785 71.772 35.3778 71.772 34.3954L71.7721 12.3246C71.7721 11.4549 70.7319 10.9944 70.0757 11.5735L60.4118 20.1028Z" fill="white"/>
<path d="M64.1147 19.9962C64.5008 20.3337 64.5709 20.9032 64.2781 21.3225L54.6997 35.0362C54.1321 35.8488 52.8436 35.4517 52.8436 34.464V12.3772C52.8436 11.5098 53.879 11.0484 54.5363 11.623L64.1147 19.9962Z" fill="white"/>
</g>
</g>
</svg>
